# Blender 5.1.1
# www.blender.org
mtllib Classic.mtl
o Size_Reference
v 0.020000 -0.010000 0.000000
v 0.020000 -0.010000 0.010000
v 0.020000 0.010000 0.000000
v 0.020000 0.010000 0.010000
v 0.040000 -0.010000 0.000000
v 0.040000 -0.010000 0.010000
v 0.040000 0.010000 0.000000
v 0.040000 0.010000 0.010000
vn -1.0000 -0.0000 -0.0000
vn -0.0000 1.0000 -0.0000
vn 1.0000 -0.0000 -0.0000
vn -0.0000 -1.0000 -0.0000
vn -0.0000 -0.0000 -1.0000
vn -0.0000 -0.0000 1.0000
vt 0.375000 0.000000
vt 0.625000 0.000000
vt 0.625000 0.250000
vt 0.375000 0.250000
vt 0.625000 0.500000
vt 0.375000 0.500000
vt 0.625000 0.750000
vt 0.375000 0.750000
vt 0.625000 1.000000
vt 0.375000 1.000000
vt 0.125000 0.500000
vt 0.125000 0.750000
vt 0.875000 0.500000
vt 0.875000 0.750000
s 0
f 1/1/1 2/2/1 4/3/1 3/4/1
f 3/4/2 4/3/2 8/5/2 7/6/2
f 7/6/3 8/5/3 6/7/3 5/8/3
f 5/8/4 6/7/4 2/9/4 1/10/4
f 3/11/5 7/6/5 5/8/5 1/12/5
f 8/5/6 4/13/6 2/14/6 6/7/6
o Basic_Main
v -0.008500 -0.008500 0.003000
v -0.008500 -0.008500 0.010000
v -0.008500 0.008500 0.003000
v -0.008500 0.008500 0.010000
v 0.008500 -0.008500 0.003000
v 0.008500 -0.008500 0.010000
v 0.008500 0.008500 0.003000
v 0.008500 0.008500 0.010000
vn -1.0000 -0.0000 -0.0000
vn -0.0000 1.0000 -0.0000
vn 1.0000 -0.0000 -0.0000
vn -0.0000 -1.0000 -0.0000
vn -0.0000 -0.0000 -1.0000
vn -0.0000 -0.0000 1.0000
vt 0.793337 0.169536
vt 0.793337 0.169512
vt 0.793396 0.169512
vt 0.793396 0.169536
s 0
usemtl Main
f 9/15/7 10/16/7 12/16/7 11/15/7
f 11/15/8 12/16/8 16/17/8 15/18/8
f 15/18/9 16/17/9 14/17/9 13/18/9
f 13/18/10 14/17/10 10/16/10 9/15/10
f 11/15/11 15/18/11 13/18/11 9/15/11
f 16/17/12 12/16/12 10/16/12 14/17/12
o Basic_Base
v -0.010000 -0.010000 0.000000
v -0.010000 -0.010000 0.003000
v -0.010000 0.010000 0.000000
v -0.010000 0.010000 0.003000
v 0.010000 -0.010000 0.000000
v 0.010000 -0.010000 0.003000
v 0.010000 0.010000 0.000000
v 0.010000 0.010000 0.003000
vn -1.0000 -0.0000 -0.0000
vn -0.0000 1.0000 -0.0000
vn 1.0000 -0.0000 -0.0000
vn -0.0000 -1.0000 -0.0000
vn -0.0000 -0.0000 -1.0000
vn -0.0000 -0.0000 1.0000
vt 0.286330 0.127541
vt 0.286330 0.127813
vt 0.284514 0.127813
vt 0.284514 0.127541
s 0
usemtl Base
f 17/19/13 18/20/13 20/20/13 19/19/13
f 19/19/14 20/20/14 24/21/14 23/22/14
f 23/22/15 24/21/15 22/21/15 21/22/15
f 21/22/16 22/21/16 18/20/16 17/19/16
f 19/19/17 23/22/17 21/22/17 17/19/17
f 24/21/18 20/20/18 18/20/18 22/21/18
o Activator_Stem
v -0.035500 -0.005500 0.003000
v -0.035500 -0.005500 0.007000
v -0.035500 0.005500 0.003000
v -0.035500 0.005500 0.007000
v -0.024500 -0.005500 0.003000
v -0.024500 -0.005500 0.007000
v -0.024500 0.005500 0.003000
v -0.024500 0.005500 0.007000
vn -1.0000 -0.0000 -0.0000
vn -0.0000 1.0000 -0.0000
vn 1.0000 -0.0000 -0.0000
vn -0.0000 -1.0000 -0.0000
vn -0.0000 -0.0000 -1.0000
vn -0.0000 -0.0000 1.0000
vt 0.093564 0.087448
vt 0.093564 0.087423
vt 0.093623 0.087423
vt 0.093623 0.087448
s 0
usemtl Main
f 25/23/19 26/24/19 28/24/19 27/23/19
f 27/23/20 28/24/20 32/25/20 31/26/20
f 31/26/21 32/25/21 30/25/21 29/26/21
f 29/26/22 30/25/22 26/24/22 25/23/22
f 27/23/23 31/26/23 29/26/23 25/23/23
f 32/25/24 28/24/24 26/24/24 30/25/24
o Activator_Base
v -0.040000 -0.010000 0.000000
v -0.040000 -0.010000 0.003000
v -0.040000 0.010000 0.000000
v -0.040000 0.010000 0.003000
v -0.020000 -0.010000 0.000000
v -0.020000 -0.010000 0.003000
v -0.020000 0.010000 0.000000
v -0.020000 0.010000 0.003000
vn -1.0000 -0.0000 -0.0000
vn -0.0000 1.0000 -0.0000
vn 1.0000 -0.0000 -0.0000
vn -0.0000 -1.0000 -0.0000
vn -0.0000 -0.0000 -1.0000
vn -0.0000 -0.0000 1.0000
vt 0.286330 0.127541
vt 0.286330 0.127813
vt 0.284514 0.127813
vt 0.284514 0.127541
s 0
usemtl Base
f 33/27/25 34/28/25 36/28/25 35/27/25
f 35/27/26 36/28/26 40/29/26 39/30/26
f 39/30/27 40/29/27 38/29/27 37/30/27
f 37/30/28 38/29/28 34/28/28 33/27/28
f 35/27/29 39/30/29 37/30/29 33/27/29
f 40/29/30 36/28/30 34/28/30 38/29/30
o Activator_Main
v -0.038500 -0.008500 0.007000
v -0.038500 -0.008500 0.010000
v -0.038500 0.008500 0.007000
v -0.038500 0.008500 0.010000
v -0.021500 -0.008500 0.007000
v -0.021500 -0.008500 0.010000
v -0.021500 0.008500 0.007000
v -0.021500 0.008500 0.010000
vn -1.0000 -0.0000 -0.0000
vn -0.0000 1.0000 -0.0000
vn 1.0000 -0.0000 -0.0000
vn -0.0000 -1.0000 -0.0000
vn -0.0000 -0.0000 -1.0000
vn -0.0000 -0.0000 1.0000
vt 0.784929 0.171201
vt 0.784929 0.171177
vt 0.784988 0.171177
vt 0.784988 0.171201
s 0
usemtl Main
f 41/31/31 42/32/31 44/32/31 43/31/31
f 43/31/32 44/32/32 48/33/32 47/34/32
f 47/34/33 48/33/33 46/33/33 45/34/33
f 45/34/34 46/33/34 42/32/34 41/31/34
f 43/31/35 47/34/35 45/34/35 41/31/35
f 48/33/36 44/32/36 42/32/36 46/33/36
o Display_Main
v -0.070000 -0.010000 0.003000
v -0.070000 -0.010000 0.009500
v -0.070000 0.010000 0.003000
v -0.070000 0.010000 0.009500
v -0.050000 -0.010000 0.003000
v -0.050000 -0.010000 0.009500
v -0.050000 0.010000 0.003000
v -0.050000 0.010000 0.009500
vn -1.0000 -0.0000 -0.0000
vn -0.0000 1.0000 -0.0000
vn 1.0000 -0.0000 -0.0000
vn -0.0000 -1.0000 -0.0000
vn -0.0000 -0.0000 -1.0000
vn -0.0000 -0.0000 1.0000
vt 0.793337 0.169536
vt 0.793337 0.169512
vt 0.793396 0.169512
vt 0.793396 0.169536
s 1
usemtl Main
f 49/35/37 50/36/37 52/36/37 51/35/37
f 51/35/38 52/36/38 56/37/38 55/38/38
f 55/38/39 56/37/39 54/37/39 53/38/39
f 53/38/40 54/37/40 50/36/40 49/35/40
f 51/35/41 55/38/41 53/38/41 49/35/41
f 56/37/42 52/36/42 50/36/42 54/37/42
o Display_Base
v -0.070000 -0.010000 0.000000
v -0.070000 -0.010000 0.003000
v -0.070000 0.010000 0.000000
v -0.070000 0.010000 0.003000
v -0.050000 -0.010000 0.000000
v -0.050000 -0.010000 0.003000
v -0.050000 0.010000 0.000000
v -0.050000 0.010000 0.003000
vn -1.0000 -0.0000 -0.0000
vn -0.0000 1.0000 -0.0000
vn 1.0000 -0.0000 -0.0000
vn -0.0000 -1.0000 -0.0000
vn -0.0000 -0.0000 -1.0000
vn -0.0000 -0.0000 1.0000
vt 0.286330 0.127541
vt 0.286330 0.127813
vt 0.284514 0.127813
vt 0.284514 0.127541
s 0
usemtl Base
f 57/39/43 58/40/43 60/40/43 59/39/43
f 59/39/44 60/40/44 64/41/44 63/42/44
f 63/42/45 64/41/45 62/41/45 61/42/45
f 61/42/46 62/41/46 58/40/46 57/39/46
f 59/39/47 63/42/47 61/42/47 57/39/47
f 64/41/48 60/40/48 58/40/48 62/41/48
o Display_Screen
v -0.070000 -0.010000 0.009500
v -0.070000 -0.010000 0.010000
v -0.070000 0.010000 0.009500
v -0.070000 0.010000 0.010000
v -0.050000 -0.010000 0.009500
v -0.050000 -0.010000 0.010000
v -0.050000 0.010000 0.009500
v -0.050000 0.010000 0.010000
vn -1.0000 -0.0000 -0.0000
vn -0.0000 1.0000 -0.0000
vn 1.0000 -0.0000 -0.0000
vn -0.0000 -1.0000 -0.0000
vn -0.0000 -0.0000 -1.0000
vn -0.0000 -0.0000 1.0000
vt 0.010878 0.165276
vt 0.010878 0.165252
vt 0.010937 0.165252
vt 0.010937 0.165276
s 1
usemtl Main
f 65/43/49 66/44/49 68/44/49 67/43/49
f 67/43/50 68/44/50 72/45/50 71/46/50
f 71/46/51 72/45/51 70/45/51 69/46/51
f 69/46/52 70/45/52 66/44/52 65/43/52
f 67/43/53 71/46/53 69/46/53 65/43/53
f 72/45/54 68/44/54 66/44/54 70/45/54
o Node
v -0.121000 -0.003000 0.000000
v -0.121000 -0.003000 0.003000
v -0.121000 0.000000 0.000000
v -0.121000 0.000000 0.003000
v -0.119000 -0.003000 0.000000
v -0.119000 -0.003000 0.003000
v -0.119000 0.000000 0.000000
v -0.119000 0.000000 0.003000
vn -1.0000 -0.0000 -0.0000
vn -0.0000 1.0000 -0.0000
vn 1.0000 -0.0000 -0.0000
vn -0.0000 -1.0000 -0.0000
vn -0.0000 -0.0000 -1.0000
vn -0.0000 -0.0000 1.0000
vt 0.873438 0.003381
vt 0.873438 0.003361
vt 0.873452 0.003361
vt 0.873452 0.003381
s 0
usemtl Main
f 73/47/55 74/48/55 76/48/55 75/47/55
f 75/47/56 76/48/56 80/49/56 79/50/56
f 79/50/57 80/49/57 78/49/57 77/50/57
f 77/50/58 78/49/58 74/48/58 73/47/58
f 75/47/59 79/50/59 77/50/59 73/47/59
f 80/49/60 76/48/60 74/48/60 78/49/60
o Light_Main
v -0.098000 -0.008000 0.003000
v -0.098000 -0.008000 0.008500
v -0.098000 0.008000 0.003000
v -0.098000 0.008000 0.008500
v -0.082000 -0.008000 0.003000
v -0.082000 -0.008000 0.008500
v -0.082000 0.008000 0.003000
v -0.082000 0.008000 0.008500
vn -1.0000 -0.0000 -0.0000
vn -0.0000 1.0000 -0.0000
vn 1.0000 -0.0000 -0.0000
vn -0.0000 -1.0000 -0.0000
vn -0.0000 -0.0000 -1.0000
vn -0.0000 -0.0000 1.0000
vt 0.793337 0.169536
vt 0.793337 0.169512
vt 0.793396 0.169512
vt 0.793396 0.169536
s 1
usemtl Main
f 81/51/61 82/52/61 84/52/61 83/51/61
f 83/51/62 84/52/62 88/53/62 87/54/62
f 87/54/63 88/53/63 86/53/63 85/54/63
f 85/54/64 86/53/64 82/52/64 81/51/64
f 83/51/65 87/54/65 85/54/65 81/51/65
f 88/53/66 84/52/66 82/52/66 86/53/66
o Light_Base
v -0.100000 -0.010000 0.000000
v -0.100000 -0.010000 0.003000
v -0.100000 0.010000 0.000000
v -0.100000 0.010000 0.003000
v -0.080000 -0.010000 0.000000
v -0.080000 -0.010000 0.003000
v -0.080000 0.010000 0.000000
v -0.080000 0.010000 0.003000
vn -1.0000 -0.0000 -0.0000
vn -0.0000 1.0000 -0.0000
vn 1.0000 -0.0000 -0.0000
vn -0.0000 -1.0000 -0.0000
vn -0.0000 -0.0000 -1.0000
vn -0.0000 -0.0000 1.0000
vt 0.286330 0.127541
vt 0.286330 0.127813
vt 0.284514 0.127813
vt 0.284514 0.127541
s 0
usemtl Base
f 89/55/67 90/56/67 92/56/67 91/55/67
f 91/55/68 92/56/68 96/57/68 95/58/68
f 95/58/69 96/57/69 94/57/69 93/58/69
f 93/58/70 94/57/70 90/56/70 89/55/70
f 91/55/71 95/58/71 93/58/71 89/55/71
f 96/57/72 92/56/72 90/56/72 94/57/72
o Light_Top
v -0.096000 -0.006000 0.008500
v -0.096000 -0.006000 0.010000
v -0.096000 0.006000 0.008500
v -0.096000 0.006000 0.010000
v -0.084000 -0.006000 0.008500
v -0.084000 -0.006000 0.010000
v -0.084000 0.006000 0.008500
v -0.084000 0.006000 0.010000
vn -1.0000 -0.0000 -0.0000
vn -0.0000 1.0000 -0.0000
vn 1.0000 -0.0000 -0.0000
vn -0.0000 -1.0000 -0.0000
vn -0.0000 -0.0000 -1.0000
vn -0.0000 -0.0000 1.0000
vt 0.010878 0.165276
vt 0.010878 0.165252
vt 0.010937 0.165252
vt 0.010937 0.165276
s 1
usemtl Main
f 97/59/73 98/60/73 100/60/73 99/59/73
f 99/59/74 100/60/74 104/61/74 103/62/74
f 103/62/75 104/61/75 102/61/75 101/62/75
f 101/62/76 102/61/76 98/60/76 97/59/76
f 99/59/77 103/62/77 101/62/77 97/59/77
f 104/61/78 100/60/78 98/60/78 102/61/78
